<svg width="97" height="21" viewBox="0 0 97 21" fill="none" xmlns="http://www.w3.org/2000/svg">
    <path d="M19.2542 17.0729C18.7416 17.6077 18.2099 18.0871 17.6593 18.5112C17.1087 18.9353 16.5011 19.3041 15.8365 19.6176C15.1909 19.9126 14.4789 20.1339 13.7004 20.2814C12.9219 20.4474 12.0485 20.5304 11.0802 20.5304C9.61814 20.5304 8.26054 20.2722 7.00738 19.7559C5.75421 19.2396 4.67193 18.5389 3.76054 17.6538C2.84914 16.7502 2.13712 15.6899 1.62446 14.4729C1.1118 13.2559 0.855469 11.9559 0.855469 10.5729V10.5176C0.855469 9.13461 1.1118 7.84383 1.62446 6.64525C2.13712 5.42823 2.84914 4.36794 3.76054 3.4644C4.67193 2.54241 5.7637 1.82326 7.03586 1.30695C8.30801 0.772198 9.71308 0.504822 11.2511 0.504822C12.1814 0.504822 13.0264 0.57858 13.7859 0.726097C14.5644 0.873615 15.2669 1.07645 15.8935 1.33461C16.5201 1.59276 17.0992 1.90624 17.6308 2.27504C18.1625 2.64383 18.6561 3.0495 19.1118 3.49206L16.3207 6.61759C15.5422 5.93532 14.7447 5.40057 13.9283 5.01333C13.1308 4.6261 12.2289 4.43248 11.2226 4.43248C10.3871 4.43248 9.60865 4.58922 8.88713 4.90269C8.18459 5.21617 7.577 5.6495 7.06434 6.20269C6.55168 6.75589 6.15295 7.40128 5.86813 8.13887C5.58332 8.85801 5.44092 9.63248 5.44092 10.4623V10.5176C5.44092 11.3474 5.58332 12.1311 5.86813 12.8687C6.15295 13.6062 6.54219 14.2516 7.03586 14.8048C7.54852 15.358 8.15611 15.8006 8.85865 16.1325C9.58017 16.446 10.3681 16.6027 11.2226 16.6027C12.3618 16.6027 13.3207 16.3999 14.0992 15.9942C14.8966 15.5885 15.6846 15.0353 16.4631 14.3346L19.2542 17.0729Z" fill="white"/>
    <path d="M38.0028 20.1984H32.8762L28.604 14.0027H25.1578V20.1984H20.7717V0.836736H29.8857C32.2591 0.836736 34.1009 1.39915 35.411 2.52397C36.7401 3.64879 37.4047 5.21617 37.4047 7.2261V7.28142C37.4047 8.84879 37.0059 10.1304 36.2085 11.1261C35.43 12.1034 34.4047 12.8226 33.1325 13.2835L38.0028 20.1984ZM32.9616 7.5027V7.44738C32.9616 6.52539 32.6578 5.8339 32.0502 5.37291C31.4426 4.91191 30.5977 4.68142 29.5154 4.68142H25.1578V10.241H29.6009C30.6831 10.241 31.5091 9.99206 32.0787 9.49418C32.6673 8.99631 32.9616 8.33248 32.9616 7.5027Z" fill="white"/>
    <path d="M54.5405 20.1984H39.3601V0.836736H54.3981V4.6261H43.7177V8.55376H53.1164V12.3431H43.7177V16.4091H54.5405V20.1984Z" fill="white"/>
    <path d="M76.7535 10.5176C76.7535 11.9006 76.4876 13.2006 75.956 14.4176C75.4244 15.6162 74.6839 16.6765 73.7345 17.5984C72.8041 18.502 71.6839 19.2211 70.3737 19.7559C69.0826 20.2722 67.668 20.5304 66.13 20.5304C64.5921 20.5304 63.1775 20.2722 61.8864 19.7559C60.5952 19.2211 59.475 18.5112 58.5256 17.6261C57.5952 16.7226 56.8642 15.6715 56.3326 14.4729C55.8199 13.2559 55.5636 11.9559 55.5636 10.5729V10.5176C55.5636 9.13461 55.8294 7.84383 56.361 6.64525C56.8927 5.42823 57.6237 4.36794 58.5541 3.4644C59.5034 2.54241 60.6237 1.82326 61.9148 1.30695C63.225 0.772198 64.649 0.504822 66.187 0.504822C67.725 0.504822 69.1395 0.772198 70.4307 1.30695C71.7218 1.82326 72.8326 2.53319 73.763 3.43674C74.7123 4.32184 75.4433 5.37291 75.956 6.58993C76.4876 7.78851 76.7535 9.07929 76.7535 10.4623V10.5176ZM72.168 10.5729V10.5176C72.168 9.6878 72.0161 8.90411 71.7123 8.16652C71.4275 7.42894 71.0098 6.78355 70.4592 6.23035C69.9275 5.67716 69.2914 5.24383 68.5509 4.93035C67.8104 4.59844 67.0035 4.43248 66.13 4.43248C65.2376 4.43248 64.4212 4.58922 63.6807 4.90269C62.9592 5.21617 62.3326 5.6495 61.8009 6.20269C61.2883 6.75589 60.88 7.40128 60.5762 8.13887C60.2914 8.85801 60.149 9.63248 60.149 10.4623V10.5176C60.149 11.3474 60.2914 12.1311 60.5762 12.8687C60.88 13.6062 61.2978 14.2516 61.8294 14.8048C62.38 15.358 63.0161 15.8006 63.7376 16.1325C64.4781 16.446 65.2946 16.6027 66.187 16.6027C67.0604 16.6027 67.8674 16.446 68.6079 16.1325C69.3484 15.819 69.975 15.3857 70.4876 14.8325C71.0193 14.2793 71.4275 13.6431 71.7123 12.924C72.0161 12.1864 72.168 11.4027 72.168 10.5729Z" fill="white"/>
    <path d="M96.3658 20.1984H92.6348L82.9797 7.88993V20.1984H78.6506V0.836736H82.6949L92.0367 12.758V0.836736H96.3658V20.1984Z" fill="white"/>
</svg>
